<?xml version="1.0" standalone="no"?>
<!DOCTYPE svg PUBLIC "-//W3C//DTD SVG 20010904//EN"
 "http://www.w3.org/TR/2001/REC-SVG-20010904/DTD/svg10.dtd">
<svg version="1.0" xmlns="http://www.w3.org/2000/svg"
 width="256.000000pt" height="256.000000pt" viewBox="0 0 256.000000 256.000000"
 preserveAspectRatio="xMidYMid meet">
<metadata>
Created by potrace 1.11, written by Peter Selinger 2001-2013
</metadata>
<g transform="translate(0.000000,256.000000) scale(0.100000,-0.100000)"
fill="#000000" stroke="none">
<path d="M1300 2464 c-8 -2 -60 -10 -115 -19 -363 -57 -503 -104 -675 -228
-170 -122 -370 -396 -438 -602 -53 -159 -71 -342 -46 -465 8 -39 37 -137 64
-218 69 -204 101 -250 291 -412 35 -30 89 -78 119 -106 95 -87 104 -94 158
-130 79 -53 202 -111 321 -152 104 -36 109 -37 256 -36 116 0 173 5 251 22
349 75 617 237 804 486 83 111 202 392 226 536 2 14 6 35 9 47 7 33 7 191 -1
253 -19 158 -87 346 -168 469 -73 110 -301 326 -363 345 -14 5 -26 19 -31 38
-4 17 -20 40 -34 51 -23 17 -32 18 -69 9 -39 -10 -50 -7 -142 29 -112 45 -186
66 -261 75 -63 7 -136 11 -156 8z m-50 -84 c-20 -13 -57 -13 -65 0 -4 6 11 10
37 10 31 0 39 -3 28 -10z m140 -14 c142 -16 219 -35 297 -72 l71 -34 -3 -52
c-2 -29 -4 -65 -4 -80 -1 -33 -30 -51 -119 -71 -57 -13 -62 -13 -67 4 -11 32
-46 69 -88 91 -23 11 -46 26 -52 33 -14 17 -40 25 -54 16 -15 -9 -44 -118 -36
-131 16 -26 43 -29 69 -9 l26 20 25 -25 c14 -14 25 -37 25 -51 0 -14 7 -39 15
-56 18 -34 19 -34 155 14 101 35 151 59 171 83 8 10 16 49 19 95 l5 77 65 -32
c36 -17 86 -46 112 -64 56 -39 169 -147 227 -219 l42 -52 -35 -46 c-43 -55
-53 -104 -36 -165 31 -112 7 -151 -82 -131 -54 13 -132 5 -210 -19 -101 -31
-114 -64 -66 -159 20 -37 21 -45 8 -49 -8 -3 -30 -20 -47 -38 -25 -24 -33 -41
-33 -67 0 -31 -14 -56 -25 -45 -2 2 -6 28 -9 58 -10 99 -74 254 -118 282 -29
19 -85 14 -118 -11 -15 -11 -30 -37 -38 -65 -14 -50 -55 -86 -98 -86 -63 0
-98 -33 -106 -98 -3 -22 -8 -23 -83 -25 -72 -2 -85 -6 -126 -34 -77 -53 -129
-150 -129 -238 0 -24 -9 -87 -20 -142 -11 -54 -20 -122 -20 -150 l0 -53 -33 0
c-46 0 -74 30 -83 87 -9 67 -27 105 -68 149 -27 29 -39 53 -51 108 -9 39 -40
127 -69 196 -30 69 -57 136 -61 150 -17 59 -126 170 -166 170 -14 0 -47 -7
-72 -16 -26 -9 -58 -13 -72 -10 -32 8 -72 52 -86 93 -22 69 41 226 156 388
169 238 310 343 581 434 190 63 224 65 274 10 27 -30 30 -31 75 -21 l47 10 -5
-63 c-4 -59 3 -85 24 -85 11 0 42 110 40 139 0 14 -8 32 -16 41 -20 22 -19 30
3 26 9 -2 42 -7 72 -10z m984 -716 c50 -145 63 -224 60 -365 -2 -101 -7 -136
-34 -225 -38 -127 -87 -247 -130 -321 -98 -165 -260 -313 -450 -409 -227 -114
-573 -176 -740 -131 -65 17 -226 79 -290 112 -58 29 -335 247 -424 333 -68 66
-96 106 -145 202 -89 177 -114 277 -114 447 0 65 3 120 6 123 3 4 20 -10 37
-30 36 -40 80 -56 158 -56 64 0 103 -24 131 -78 19 -39 74 -184 136 -362 21
-58 49 -118 64 -135 37 -42 47 -64 56 -115 17 -100 74 -155 171 -165 83 -8
126 42 130 148 2 39 6 83 9 97 4 14 9 36 11 50 10 62 14 88 19 135 9 75 22
109 54 139 32 31 95 56 126 50 74 -12 126 -12 140 2 16 16 16 18 18 74 2 33 5
36 67 62 68 29 97 57 126 120 9 21 22 37 28 35 16 -5 54 -87 60 -132 3 -22 8
-69 11 -105 9 -101 26 -130 80 -135 46 -5 118 55 135 112 14 46 26 63 63 86
53 34 57 93 9 149 -24 29 -8 45 55 54 64 9 62 9 150 -2 53 -6 66 -4 96 15 64
39 93 143 59 209 -11 20 -6 75 9 103 6 12 12 19 14 17 1 -1 19 -50 39 -108z"/>
</g>
</svg>
